<?xml version="1.0" standalone="no"?>
<!DOCTYPE svg PUBLIC "-//W3C//DTD SVG 20010904//EN"
 "http://www.w3.org/TR/2001/REC-SVG-20010904/DTD/svg10.dtd">
<svg version="1.0" xmlns="http://www.w3.org/2000/svg"
 width="700.000000pt" height="700.000000pt" viewBox="0 0 700.000000 700.000000"
 preserveAspectRatio="xMidYMid meet">
<metadata>
Created by potrace 1.11, written by Peter Selinger 2001-2013
</metadata>
<g transform="translate(0.000000,700.000000) scale(0.100000,-0.100000)"
fill="#000000" stroke="none">
<path d="M5466 6563 c-1 -1 -69 -3 -152 -4 -461 -7 -655 -91 -774 -334 -36
-73 -81 -219 -94 -305 -3 -19 -8 -44 -10 -55 -2 -12 -7 -48 -11 -80 -4 -33 -8
-71 -10 -85 -2 -14 -7 -65 -10 -115 -4 -49 -8 -110 -11 -135 -23 -261 -23
-1840 1 -2150 2 -30 7 -93 10 -140 4 -47 8 -98 10 -115 3 -16 7 -55 11 -85 4
-30 8 -64 10 -75 3 -11 7 -35 10 -54 9 -56 12 -67 30 -133 90 -325 242 -451
599 -496 78 -9 712 -9 790 1 175 22 275 54 365 118 95 66 148 144 211 307 13
33 47 171 54 217 3 23 7 50 9 60 13 71 28 226 41 440 21 337 21 1798 0 2045
-2 25 -6 95 -10 155 -3 61 -8 121 -10 135 -2 14 -6 48 -10 75 -27 229 -61 357
-128 490 -107 209 -285 294 -648 311 -151 6 -270 10 -273 7z m110 -447 c66 -9
179 -66 232 -116 53 -51 120 -154 155 -240 27 -67 71 -213 80 -265 3 -17 10
-57 15 -90 10 -56 16 -95 27 -177 3 -18 7 -64 11 -103 3 -38 7 -89 9 -112 23
-251 23 -1035 0 -1273 -1 -19 -6 -70 -10 -113 -4 -43 -8 -88 -10 -100 -2 -12
-6 -44 -10 -72 -51 -430 -192 -705 -405 -791 -73 -30 -123 -38 -223 -37 -205
3 -354 109 -455 323 -44 95 -94 270 -116 407 -19 120 -23 154 -32 253 -3 41
-8 82 -9 90 -24 128 -24 1192 0 1341 2 13 6 58 9 100 8 102 24 215 47 329 103
502 308 696 685 646z"/>
<path d="M1547 6524 c-1 -1 -56 -5 -123 -8 -66 -4 -131 -8 -145 -10 -13 -3
-62 -7 -109 -11 -47 -4 -103 -9 -125 -10 -22 -2 -74 -6 -115 -10 -41 -3 -84
-7 -95 -10 -11 -2 -47 -7 -80 -11 -33 -3 -70 -10 -82 -15 -13 -5 -23 -6 -23
-3 0 2 -9 0 -20 -6 -11 -6 -20 -15 -20 -19 0 -21 119 -53 480 -126 206 -42
320 -75 436 -126 301 -132 549 -394 643 -680 37 -113 49 -187 49 -305 1 -425
-277 -723 -736 -789 -23 -3 -97 -8 -165 -10 -119 -3 -256 -14 -268 -21 -3 -2
-21 -6 -40 -9 -191 -32 -359 -155 -444 -323 -62 -124 -102 -291 -120 -492 -12
-141 -6 -555 10 -650 2 -14 9 -55 15 -92 11 -70 45 -190 63 -223 6 -11 11 -23
12 -26 0 -11 60 -91 92 -124 77 -80 227 -143 403 -170 158 -23 635 -24 780 -1
14 3 61 7 105 11 88 7 135 11 210 19 28 3 75 8 105 12 67 7 106 12 145 20 17
3 35 7 40 8 16 3 35 17 35 25 0 12 -92 46 -170 65 -85 20 -192 44 -221 50 -13
3 -33 7 -44 10 -24 5 -221 46 -254 52 -110 21 -330 112 -439 181 -66 42 -188
140 -217 175 -92 107 -153 215 -184 325 -23 83 -22 221 3 298 60 194 251 349
496 406 43 10 58 13 118 24 15 3 86 7 157 10 208 8 283 15 354 31 184 41 299
115 391 252 74 110 129 304 156 547 17 157 23 616 10 865 -18 385 -75 579
-206 711 -100 101 -238 152 -475 175 -62 6 -382 13 -388 8z"/>
<path d="M2459 1746 c-2 -2 -125 -7 -274 -11 -148 -3 -297 -8 -330 -10 -303
-19 -302 -19 -500 -40 -107 -11 -298 -46 -391 -70 -321 -86 -473 -232 -509
-487 -3 -21 -8 -55 -11 -75 -6 -44 -6 -316 0 -353 3 -14 7 -46 11 -72 16 -129
83 -261 170 -334 108 -90 302 -163 525 -199 25 -4 52 -9 61 -10 9 -2 40 -6 70
-10 30 -3 65 -8 79 -10 95 -14 213 -23 520 -40 511 -28 2683 -28 3245 0 113 6
277 16 320 20 157 15 199 20 265 29 19 3 55 8 80 11 167 22 355 76 471 136
185 96 264 224 295 477 6 53 5 286 -1 357 -29 311 -178 470 -523 560 -99 26
-290 61 -382 70 -30 3 -68 7 -85 9 -16 2 -75 7 -130 11 -55 4 -120 9 -145 10
-25 2 -101 7 -170 10 -69 3 -174 8 -235 11 -119 6 -2421 15 -2426 10z"/>
</g>
</svg>
